<svg width="18" height="20" viewBox="0 0 18 20" fill="none" xmlns="http://www.w3.org/2000/svg">
<g filter="url(#filter0_d)">
<path d="M9.70836 2.43833C9.54736 2.43833 9.41669 2.30767 9.41669 2.14667V1.16667C9.41669 0.84525 9.15477 0.583333 8.83335 0.583333C8.51194 0.583333 8.25002 0.84525 8.25002 1.16667V2.14667C8.25002 2.30767 8.11935 2.43833 7.95835 2.43833C7.79735 2.43833 7.66669 2.30825 7.66669 2.14667V1.16667C7.66669 0.52325 8.18994 0 8.83335 0C9.47677 0 10 0.52325 10 1.16667V2.14667C10 2.30825 9.86936 2.43833 9.70836 2.43833Z" fill="#FCB543"/>
<path d="M8.83335 14C7.70752 14 6.79169 13.0842 6.79169 11.9584C6.79169 11.7974 6.92235 11.6667 7.08335 11.6667C7.24435 11.6667 7.37502 11.7974 7.37502 11.9584C7.37502 12.7622 8.02952 13.4167 8.83335 13.4167C9.63719 13.4167 10.2917 12.7622 10.2917 11.9584C10.2917 11.7974 10.4224 11.6667 10.5834 11.6667C10.7444 11.6667 10.875 11.7974 10.875 11.9584C10.875 13.0842 9.95919 14 8.83335 14Z" fill="#FCB543"/>
<path d="M13.7917 12.25H3.875C3.39258 12.25 3 11.8574 3 11.375C3 11.1189 3.11142 10.8768 3.30625 10.71C4.22558 9.933 4.75 8.8025 4.75 7.6055V5.83333C4.75 3.58167 6.58167 1.75 8.83333 1.75C11.085 1.75 12.9167 3.58167 12.9167 5.83333V7.6055C12.9167 8.80308 13.4411 9.933 14.3558 10.7059C14.5553 10.8768 14.6667 11.1189 14.6667 11.375C14.6667 11.8574 14.2747 12.25 13.7917 12.25ZM8.83333 2.33333C6.90308 2.33333 5.33333 3.90308 5.33333 5.83333V7.6055C5.33333 8.97517 4.73367 10.2673 3.68775 11.1516C3.62067 11.2087 3.58333 11.2898 3.58333 11.375C3.58333 11.536 3.714 11.6667 3.875 11.6667H13.7917C13.9527 11.6667 14.0833 11.536 14.0833 11.375C14.0833 11.2898 14.046 11.2087 13.9813 11.1533C12.9336 10.2673 12.3333 8.97458 12.3333 7.6055V5.83333C12.3333 3.90308 10.7636 2.33333 8.83333 2.33333Z" fill="#FCB543"/>
</g>
<defs>
<filter id="filter0_d" x="0" y="0" width="17.6667" height="20" filterUnits="userSpaceOnUse" color-interpolation-filters="sRGB">
<feFlood flood-opacity="0" result="BackgroundImageFix"/>
<feColorMatrix in="SourceAlpha" type="matrix" values="0 0 0 0 0 0 0 0 0 0 0 0 0 0 0 0 0 0 127 0"/>
<feOffset dy="3"/>
<feGaussianBlur stdDeviation="1.5"/>
<feColorMatrix type="matrix" values="0 0 0 0 0 0 0 0 0 0 0 0 0 0 0 0 0 0 0.25 0"/>
<feBlend mode="normal" in2="BackgroundImageFix" result="effect1_dropShadow"/>
<feBlend mode="normal" in="SourceGraphic" in2="effect1_dropShadow" result="shape"/>
</filter>
</defs>
</svg>
