<svg width="134" height="12" viewBox="0 0 134 12" fill="none" xmlns="http://www.w3.org/2000/svg">
<path d="M10.2779 11.992H6.02828C5.23744 12.0056 4.45222 11.8567 3.72124 11.5546C2.99026 11.2524 2.32908 10.8035 1.77863 10.2355C1.20867 9.68691 0.756951 9.02755 0.451226 8.29796C0.145501 7.56836 -0.00776397 6.78394 0.000853574 5.99292C-0.0127392 5.20208 0.136142 4.41686 0.43828 3.68588C0.740418 2.9549 1.18938 2.29372 1.75738 1.74327C2.3074 1.17959 2.96682 0.734267 3.69517 0.434646C4.42352 0.135025 5.20541 -0.0125741 5.99286 0.00090802H10.2425V2.74193H5.99286C5.56568 2.741 5.14251 2.82445 4.74766 2.9875C4.35281 3.15055 3.99406 3.38998 3.69199 3.69204C3.38992 3.99411 3.15049 4.35287 2.98744 4.74772C2.8244 5.14257 2.74095 5.56573 2.74188 5.99292C2.73421 6.42112 2.81448 6.84634 2.97773 7.24228C3.14098 7.63822 3.38373 7.99645 3.69097 8.29481C3.98873 8.60333 4.34668 8.8474 4.74265 9.01188C5.13862 9.17635 5.56415 9.25774 5.99286 9.25099H10.2425L10.2779 11.992Z" fill="white"/>
<path d="M23.806 11.992H16.787L15.5829 9.25099H19.5209L17.3961 4.42764L14.0389 11.992H10.9579V9.25099H12.1761L16.2912 0.000915527H18.5152L23.806 11.992Z" fill="white"/>
<path d="M35.62 8.30894C35.6277 8.79278 35.5361 9.27306 35.3509 9.72013C35.1658 10.1672 34.8909 10.5716 34.5434 10.9083C34.2065 11.258 33.8012 11.5346 33.3528 11.7211C32.9044 11.9075 32.4225 11.9997 31.937 11.992H24.493V9.25095H31.937C32.0612 9.25286 32.1846 9.2298 32.2997 9.18314C32.4149 9.13648 32.5195 9.06716 32.6073 8.9793C32.6952 8.89145 32.7645 8.78684 32.8112 8.67168C32.8578 8.55653 32.8809 8.43318 32.879 8.30894C32.8819 8.18444 32.8595 8.06065 32.8132 7.94504C32.7669 7.82944 32.6976 7.72443 32.6095 7.63637C32.5215 7.54831 32.4165 7.47903 32.3009 7.43272C32.1853 7.38641 32.0615 7.36403 31.937 7.36694H28.1689C27.6846 7.37369 27.204 7.281 26.7569 7.0946C26.3098 6.90821 25.9057 6.63208 25.5696 6.28328C25.2221 5.94654 24.9472 5.54216 24.7621 5.09509C24.5769 4.64802 24.4853 4.16774 24.493 3.6839C24.4844 3.19888 24.5755 2.71725 24.7606 2.26889C24.9458 1.82053 25.2212 1.415 25.5696 1.07745C25.9063 0.729932 26.3107 0.45511 26.7578 0.269947C27.2048 0.0847839 27.6851 -0.00679195 28.1689 0.000871401H35.62V2.7419H28.1689C28.045 2.73997 27.9219 2.76349 27.8074 2.811C27.6929 2.85851 27.5894 2.92901 27.5032 3.01813C27.4134 3.10379 27.3424 3.20725 27.2948 3.32189C27.2473 3.43652 27.2241 3.55982 27.2269 3.6839C27.2269 3.93374 27.3262 4.17334 27.5028 4.35C27.6795 4.52666 27.9191 4.62591 28.1689 4.62591H31.937C32.4209 4.62498 32.9002 4.7196 33.3475 4.90436C33.7948 5.08912 34.2012 5.36038 34.5433 5.70257C34.8855 6.04475 35.1568 6.45114 35.3415 6.89841C35.5263 7.34567 35.6209 7.82502 35.62 8.30894Z" fill="white"/>
<path d="M39.048 11.992H36.307V0.000915527H39.048V11.992ZM47.4411 11.992H44.7001V7.36698H39.388L40.585 4.62596H44.7001V0.000915527H47.4553L47.4411 11.992Z" fill="white"/>
<path d="M60.9692 11.992H53.9431L52.7461 9.25099H56.6629L54.5381 4.42055L51.195 11.992H48.1211L53.4332 0.000915527H55.6571L60.9692 11.992Z" fill="#FCB543"/>
<path d="M72.7832 11.992H70.0422L64.376 5.19258V11.992H61.6208V0.000915527H64.3689L70.0351 6.79328V0.000915527H72.7761L72.7832 11.992Z" fill="#FCB543"/>
<path d="M84.5973 5.99292C84.6113 6.78382 84.4626 7.56916 84.1605 8.3002C83.8583 9.03124 83.4091 9.69237 82.8408 10.2426C82.2906 10.8109 81.6294 11.2601 80.8984 11.5623C80.1674 11.8644 79.382 12.0131 78.5911 11.9991H73.4561V0.000906133H78.6194C79.4103 -0.0131086 80.1957 0.13558 80.9267 0.437743C81.6578 0.739906 82.3189 1.18909 82.8691 1.75743C83.4316 2.30765 83.8752 2.96743 84.1724 3.69596C84.4697 4.42449 84.6143 5.20626 84.5973 5.99292ZM81.8563 5.99292C81.8572 5.56692 81.7742 5.14491 81.612 4.75099C81.4499 4.35706 81.2117 3.99894 80.9112 3.69706C80.6106 3.39517 80.2535 3.15545 79.8603 2.99157C79.4671 2.82769 79.0454 2.74286 78.6194 2.74193H76.2113V9.25099H78.6194C79.0482 9.25816 79.4739 9.17697 79.8699 9.01246C80.2659 8.84796 80.6238 8.60367 80.9213 8.29481C81.2274 7.99626 81.4684 7.63767 81.6293 7.24155C81.7902 6.84542 81.8675 6.42032 81.8563 5.99292Z" fill="#FCB543"/>
<path d="M96.4184 3.6839C96.4251 4.16825 96.3325 4.64884 96.1461 5.09594C95.9597 5.54304 95.6835 5.94715 95.3347 6.28328C94.9986 6.63208 94.5945 6.90821 94.1474 7.0946C93.7003 7.281 93.2197 7.37369 92.7354 7.36694H88.3653L89.5623 4.62591H92.7354C92.8591 4.62591 92.9816 4.60154 93.0958 4.5542C93.2101 4.50686 93.314 4.43748 93.4015 4.35C93.4889 4.26253 93.5583 4.15868 93.6057 4.04439C93.653 3.93011 93.6774 3.80761 93.6774 3.6839C93.6801 3.55982 93.657 3.43652 93.6095 3.32189C93.5619 3.20725 93.4909 3.10379 93.4011 3.01813C93.3149 2.92901 93.2114 2.85851 93.0969 2.811C92.9824 2.76349 92.8593 2.73997 92.7354 2.7419H88.0253V11.992H85.2843V0.000871401H92.7354C93.2192 -0.00679195 93.6995 0.0847839 94.1465 0.269947C94.5936 0.45511 94.998 0.729932 95.3347 1.07745C95.6844 1.41439 95.9611 1.81965 96.1475 2.26804C96.3339 2.71643 96.4261 3.19837 96.4184 3.6839Z" fill="white"/>
<path d="M107.375 11.992H97.0984V0.000915527H99.8677V9.25099H107.375V11.992Z" fill="white"/>
<path d="M120.903 11.992H113.884L112.687 9.25099H116.618L114.494 4.42055L111.129 11.992H108.062L113.367 0.000915527H115.598L120.903 11.992Z" fill="white"/>
<path d="M133.582 0.000915527L128.957 6.42497V11.992H126.216V6.42497L121.583 0.000915527H125.011L127.583 3.59896L130.154 0.000915527H133.582Z" fill="white"/>
</svg>
