<svg width="85" height="39" viewBox="0 0 85 39" fill="none" xmlns="http://www.w3.org/2000/svg">
<path d="M41.6344 21.5552H42.9694V24.5303H43.9195L45.6468 21.5552H47.0953L45.0176 25.0339V25.0535L47.2187 28.8615H45.7085L43.9195 25.6702H42.9694V28.8615H41.6344V21.5552ZM50.2095 23.4911C51.8234 23.4911 53.114 24.6335 53.114 26.2401C53.114 27.8567 51.8209 28.9892 50.2194 28.9892C48.6179 28.9892 47.3248 27.8567 47.3248 26.2401C47.3248 24.6335 48.6154 23.4911 50.2095 23.4911ZM50.2194 27.8763C51.0781 27.8763 51.7913 27.2179 51.7913 26.2401C51.7913 25.2722 51.0781 24.604 50.2194 24.604C49.3606 24.604 48.6574 25.2722 48.6574 26.2401C48.6574 27.2179 49.3606 27.8763 50.2194 27.8763ZM54.1676 23.6139H55.4188V27.751H57.0622V23.6139H58.3133V27.751H59.9568V23.6139H61.2079V28.8639H54.1676V23.6139ZM64.9735 23.4911C66.4837 23.4911 67.3104 24.5917 67.3104 25.9822C67.3104 26.1468 67.2907 26.3212 67.2685 26.4858H63.641C63.7224 27.4022 64.4257 27.8763 65.2228 27.8763C65.7607 27.8763 66.3085 27.6405 66.733 27.299L67.2512 28.235C66.7132 28.7092 65.8866 28.9868 65.1315 28.9868C63.3844 28.9868 62.2887 27.7314 62.2887 26.2377C62.2863 24.6236 63.3918 23.4911 64.9735 23.4911ZM65.9976 25.5891C65.9877 24.8889 65.5312 24.4762 64.9439 24.4762C64.2727 24.4762 63.7965 24.9184 63.6731 25.5891H65.9976ZM67.9323 27.7633C68.5837 27.67 69.0378 27.1246 69.0378 25.2624V23.6139H72.8849V28.8639H71.5721V24.6752H70.2889V25.2624C70.2889 27.5471 69.6794 28.8639 67.9323 28.918V27.7633ZM76.6406 23.4911C78.1508 23.4911 78.9775 24.5917 78.9775 25.9822C78.9775 26.1468 78.9578 26.3212 78.9356 26.4858H75.3056C75.3895 27.4022 76.0903 27.8763 76.8874 27.8763C77.4253 27.8763 77.9732 27.6405 78.3976 27.299L78.9158 28.235C78.3779 28.7092 77.5512 28.9868 76.7961 28.9868C75.049 28.9868 73.9533 27.7314 73.9533 26.2377C73.9509 24.6236 75.0589 23.4911 76.6406 23.4911ZM77.6622 25.5891C77.6524 24.8889 77.1959 24.4762 76.6086 24.4762C75.9373 24.4762 75.4611 24.9184 75.3377 25.5891H77.6622ZM80.083 23.6139H81.3958V25.6211H82.0374L83.3206 23.6139H84.779L83.1034 26.1149V26.1345L84.9863 28.8615H83.4662L82.0818 26.7315H81.3983V28.8615H80.0855V23.6139H80.083Z" fill="#2D3540"/>
<path d="M60.0554 5.60133V18.0151C60.0554 18.2019 59.9049 18.3517 59.7174 18.3517H57.1707C56.9832 18.3517 56.8327 18.2019 56.8327 18.0151V5.60133C56.8327 5.41462 56.9832 5.26476 57.1707 5.26476H59.7174C59.9049 5.2623 60.0554 5.41462 60.0554 5.60133ZM79.9028 5.2623H77.0527C76.9046 5.2623 76.7714 5.35811 76.7294 5.49814L74.474 12.8339L71.9965 5.49077C71.9496 5.3532 71.8212 5.2623 71.6757 5.2623H69.6867C69.5411 5.2623 69.4103 5.35565 69.3659 5.49077L66.8884 12.8339L64.633 5.49814C64.5885 5.35811 64.4577 5.2623 64.3097 5.2623H61.4595C61.351 5.2623 61.2473 5.31389 61.1856 5.40233C61.1215 5.49077 61.1042 5.60133 61.1387 5.70451L65.3239 18.1232C65.3708 18.2608 65.4991 18.3517 65.6447 18.3517H67.9075C68.0531 18.3517 68.1839 18.2584 68.2283 18.1232L70.6837 10.8685L73.139 18.1232C73.1859 18.2608 73.3142 18.3517 73.4598 18.3517H75.7226C75.8682 18.3517 75.999 18.2584 76.0434 18.1232L80.2286 5.70451C80.2631 5.60133 80.2458 5.49077 80.1817 5.40233C80.1126 5.31389 80.0114 5.2623 79.9028 5.2623ZM84.1892 5.2623H81.6425C81.455 5.2623 81.3045 5.41216 81.3045 5.59887V18.0127C81.3045 18.1994 81.455 18.3493 81.6425 18.3493H84.1892C84.3767 18.3493 84.5272 18.1994 84.5272 18.0127V5.60133C84.5272 5.41462 84.3767 5.2623 84.1892 5.2623ZM55.357 17.9242C55.5051 18.0888 55.3842 18.3517 55.1596 18.3517H52.038C51.9122 18.3517 51.7913 18.2952 51.7098 18.1994L51.1817 17.5656C50.1034 18.2608 48.8202 18.6662 47.4432 18.6662C43.643 18.6662 40.5535 15.5879 40.5535 11.807C40.5535 8.02611 43.6455 4.94784 47.4432 4.94784C51.2434 4.94784 54.3329 8.02611 54.3329 11.807C54.3329 13.1705 53.9307 14.4406 53.2373 15.5093L55.357 17.9242ZM49.1706 15.158L47.8035 13.5218C47.6604 13.3498 47.7838 13.0894 48.0059 13.0894H50.8659C51.0016 12.6865 51.0781 12.2541 51.0781 11.807C51.0781 9.75564 49.5457 7.98926 47.4408 7.98926C45.3358 7.98926 43.8034 9.7581 43.8034 11.807C43.8034 13.8559 45.3358 15.6002 47.4408 15.6002C48.0824 15.6002 48.6647 15.438 49.1706 15.158ZM29.3726 23.9432C29.0468 23.8204 28.7877 23.9186 28.6643 24.1422C28.4768 24.4812 28.615 25.1519 28.9925 25.7391C29.375 26.3312 29.6983 26.6333 29.9549 26.6333C30.1918 26.6333 30.4262 26.3262 30.3152 25.5843C30.2486 25.1396 30.0018 24.1791 29.3726 23.9432ZM25.6069 26.7095C25.2664 26.7095 24.9801 26.8274 24.8049 27.0436C24.3558 27.5939 24.5582 28.5643 25.2442 29.1613C25.5452 29.4217 25.9771 29.5789 26.399 29.5789C26.8309 29.5789 27.1911 29.4168 27.4132 29.1244C27.813 28.5913 27.5835 27.8347 26.8284 27.1984C26.4558 26.8839 26.0215 26.7095 25.6069 26.7095ZM16.9849 33.8192C7.60533 33.8192 0 26.2476 0 16.9096C0 7.57162 7.60533 0 16.9849 0C26.3645 0 33.9698 7.57162 33.9698 16.9096C33.9698 20.0837 33.0913 23.0514 31.5663 25.5892C31.517 25.6727 31.3911 25.6433 31.3788 25.5475C30.7964 21.3907 28.2448 19.101 24.5335 18.4352C24.2127 18.3763 24.151 18.1797 24.5779 18.1429C25.7105 18.0446 27.3244 18.0618 28.1437 18.2092C28.193 17.7842 28.2152 17.3494 28.2152 16.9096C28.2152 10.7359 23.1886 5.73153 16.9874 5.73153C10.7861 5.73153 5.75952 10.7359 5.75952 16.9096C5.75952 23.0834 10.7861 28.0877 16.9874 28.0877C17.165 28.0877 17.3402 28.0902 17.5155 28.0828C17.3279 26.9969 17.2712 25.8939 17.3032 25.061C17.3304 24.3781 17.4686 24.2847 17.7795 24.8154C19.3341 27.4809 21.5624 29.9106 25.8981 30.8613C29.4417 31.6377 32.9951 32.5589 36.8372 37.3864C37.1778 37.8163 36.6571 38.2438 36.2647 37.8999C32.356 34.4506 28.8247 33.3402 25.5699 33.3402C21.9424 33.3377 19.4723 33.8192 16.9849 33.8192Z" fill="#FF8C00"/>
</svg>
