<svg width="97" height="26" viewBox="0 0 97 26" fill="none" xmlns="http://www.w3.org/2000/svg">
<path d="M15.4612 2.80457H26.8366V23.1956H15.4612V2.80457Z" fill="#FF5F00"/>
<path d="M16.1666 13.0001C16.168 11.0384 16.6155 9.10251 17.4758 7.33699C18.336 5.57147 19.5866 4.02205 21.1342 2.80457C19.2114 1.318 16.9076 0.397323 14.4845 0.147157C12.0615 -0.103008 9.61642 0.327373 7.42721 1.38939C5.23801 2.45141 3.39245 4.10247 2.1003 6.15493C0.808141 8.2074 0.121204 10.579 0.117554 13.0001C0.121204 15.4212 0.808141 17.7927 2.1003 19.8452C3.39245 21.8977 5.23801 23.5487 7.42721 24.6108C9.61642 25.6728 12.0615 26.1032 14.4845 25.853C16.9076 25.6028 19.2114 24.6821 21.1342 23.1956C19.5834 21.981 18.3304 20.4322 17.4699 18.666C16.6093 16.8998 16.1637 14.9624 16.1666 13.0001Z" fill="#EB001B"/>
<path d="M42.1803 13C42.1767 15.4211 41.4897 17.7927 40.1976 19.8451C38.9054 21.8976 37.0598 23.5487 34.8706 24.6107C32.6814 25.6727 30.2364 26.1031 27.8133 25.8529C25.3903 25.6027 23.0865 24.6821 21.1636 23.1955C22.7091 21.9769 23.9576 20.4269 24.8158 18.6615C25.6739 16.896 26.1197 14.9607 26.1197 13C26.1197 11.0393 25.6739 9.10395 24.8158 7.3385C23.9576 5.57304 22.7091 4.02312 21.1636 2.80449C23.0799 1.29421 25.387 0.353516 27.8184 0.0910712C30.2497 -0.171374 32.7062 0.255137 34.904 1.32134C37.1019 2.38754 38.9514 4.04992 40.2389 6.11647C41.5264 8.18302 42.1995 10.5694 42.1803 13Z" fill="#F79E1B"/>
<path d="M64.4021 20.9607L66.9447 6.10569H71.0157L68.4732 20.9607H64.4021ZM83.1848 6.47086C82.3912 6.17873 81.1273 5.84277 79.5547 5.84277C75.5424 5.84277 72.7206 7.8585 72.6912 10.7506C72.6765 12.8832 74.7047 14.0664 76.2479 14.7821C77.8351 15.5124 78.3642 15.9799 78.3495 16.6225C78.3495 17.6158 77.1003 18.0832 75.9245 18.0832C74.3079 18.0832 73.4261 17.8495 72.1033 17.2945L71.5742 17.0608L71.0157 20.3911C72.4599 20.9209 73.9883 21.1881 75.5277 21.1798C79.8045 21.1798 82.5823 19.1787 82.6117 16.0967C82.6117 14.4169 81.5388 13.1315 79.202 12.0652C77.7764 11.3787 76.9092 10.9259 76.9239 10.2248C76.9239 9.61131 77.6588 8.9394 79.2461 8.9394C80.5688 8.9248 81.5388 9.21693 82.2883 9.52367L82.6411 9.68435L83.1995 6.47086H83.1848ZM93.6197 6.1203H90.4745C89.5045 6.1203 88.7697 6.38322 88.3435 7.34727L82.3177 20.9607H86.5798L87.4323 18.7259H92.635L93.1347 20.9607H96.8971L93.6197 6.13491V6.1203ZM88.6227 15.7023L90.2394 11.554L90.7685 10.1372L91.0624 11.4079L91.9883 15.7023H88.608H88.6227ZM60.9924 6.10569L57.0242 16.2428L56.598 14.1832C55.5777 11.484 53.581 9.26002 50.9985 7.94614L54.6286 20.9461H58.9201L65.3133 6.10569H61.0218H60.9924Z" fill="#004686"/>
<path d="M53.35 6.10559H46.7952L46.7364 6.39773C51.8362 7.6393 55.2019 10.6191 56.5981 14.1831L55.1725 7.36177C54.9373 6.41233 54.2172 6.1348 53.3353 6.10559H53.35Z" fill="#EF9B11"/>
</svg>
