<svg width="77" height="42" viewBox="0 0 77 42" fill="none" xmlns="http://www.w3.org/2000/svg">
<path d="M0 19.0169C0 16.7695 0.431579 15.6458 5.00632 12.1881C8.89053 9.33559 20.7158 0 20.7158 0V15.5593H31.0737V39.7627H3.45263C1.81263 39.7627 0 37.9475 0 36.3051V19.0169Z" fill="#FFCE01"/>
<path d="M20.7158 15.5593V25.0678L3.97052 37.0831L25.8947 30.2542V15.5593H20.7158Z" fill="#D2AA07"/>
<path d="M13.2926 15.3865C14.3284 14.1763 15.7958 13.7441 16.5726 14.4356C17.3495 15.1271 17.1768 16.5966 16.2274 17.8068C15.1916 19.017 13.7242 19.4492 12.9474 18.7577C12.1705 18.1526 12.3431 16.5966 13.2926 15.3865Z" fill="#231F20"/>
<path d="M42.9853 16.3372L40.9137 21.0915H39.36L41.6906 16.0779C40.5685 15.5593 39.8779 14.522 39.8779 12.7067C39.8779 10.1135 41.5179 8.81689 43.4169 8.81689H45.4021V21.0915H44.1074V16.3372H42.9853ZM44.1074 9.85418H43.4169C42.3811 9.85418 41.3453 10.5457 41.3453 12.6203C41.3453 14.6084 42.2948 15.2135 43.4169 15.2135H44.1074V9.85418Z" fill="#FF0000"/>
<path d="M51.8758 12.361V21.0051H50.5811V17.1152H48.5958V21.0051H47.2148V12.361H48.5958V16.0779H50.5811V12.361H51.8758ZM58.6948 22.7339H57.4864V21.0051H53.7748V22.7339H52.5664V19.9678H53.0843C53.8611 18.1525 53.9474 15.4729 53.9474 13.139V12.361H58.0043V19.9678H58.6948V22.7339ZM56.7095 13.4847H55.2422V13.6576C55.2422 15.4729 55.1558 18.1525 54.4653 19.9678H56.7958V13.4847H56.7095ZM62.4064 21.1779C60.5937 21.1779 59.5579 19.7084 59.5579 17.1152C59.5579 14.3491 60.3348 12.2746 62.1474 12.2746C63.6148 12.2746 64.5643 13.3983 64.5643 16.3373V17.1152H60.939C60.939 19.1034 61.4569 20.1407 62.579 20.1407C63.3558 20.1407 63.96 19.7949 64.3053 19.5356L64.6506 20.5729C64.0464 20.9186 63.2695 21.1779 62.4064 21.1779ZM60.939 15.9051H63.1832C63.1832 14.4356 62.9243 13.3118 62.1474 13.3118C61.2843 13.3983 61.0253 14.3491 60.939 15.9051ZM67.24 16.7695V21.0915H65.859V12.4474H67.24V16.4237L69.3116 12.4474H70.6927L68.5348 16.4237L70.9516 21.0051H69.4843L67.24 16.7695ZM71.2106 16.683C71.2106 14.0034 72.2464 12.1881 74.3179 12.1881C75.0948 12.1881 75.5264 12.361 75.9579 12.6203L75.7853 13.9169C75.44 13.5712 74.9221 13.3118 74.3179 13.3118C73.3685 13.3118 72.6779 14.4356 72.6779 16.5966C72.6779 18.7576 73.1958 19.9678 74.3179 19.9678C75.0085 19.9678 75.44 19.7084 75.7853 19.4491L76.1306 20.4864C75.699 20.9186 75.0948 21.1779 74.3179 21.1779C72.3327 21.1779 71.2106 19.7084 71.2106 16.683Z" fill="black"/>
<path d="M45.2295 39.4169H39.9642L39.7916 41.4915H39.1011V38.7254H39.4463C40.0505 38.2067 40.3095 36.8237 40.4821 35.0949C40.6548 33.2796 40.7411 30.5135 40.7411 27.1423H45.0569V38.7254H45.92V41.4915H45.2295V39.4169ZM44.28 27.8339H41.6042C41.5179 30.9457 41.4316 33.3661 41.3453 35.0949C41.1727 36.9101 40.9137 38.1203 40.4821 38.7254H44.28V27.8339Z" fill="black"/>
<path d="M49.5453 38.8983C50.6674 38.8983 51.2716 37.9474 51.2716 37.9474L51.5306 38.639C51.5306 38.639 50.84 39.5898 49.459 39.5898C47.6464 39.5898 46.7832 37.9474 46.7832 35.0949C46.7832 32.2423 47.819 30.6 49.2864 30.6C50.7537 30.6 51.7032 32.1559 51.4442 35.2678H47.56C47.6464 37.6017 48.3369 38.8983 49.5453 38.8983ZM47.6464 34.5762H50.7537C50.9264 32.2423 50.2358 31.2051 49.2864 31.2051C48.5095 31.2915 47.7327 32.4152 47.6464 34.5762Z" fill="black"/>
<path d="M56.8821 35.2677H53.9474V39.4169H53.1705V30.7728H53.9474V34.5762H56.8821V30.7728H57.659V39.4169H56.8821V35.2677Z" fill="black"/>
<path d="M59.5579 30.7728H60.4211V33.9711H61.0253C62.6653 33.9711 63.7011 34.8355 63.7011 36.6508C63.7011 38.466 62.579 39.4169 60.939 39.4169H59.5579V30.7728ZM60.4211 34.6627V38.8118H60.939C62.1474 38.8118 63.0106 38.2067 63.0106 36.7372C63.0106 35.2677 62.32 34.6627 61.0253 34.6627H60.4211Z" fill="black"/>
<path d="M65.9453 31.4643V39.5033H65.1685V30.8593H68.7937V31.5508H65.9453V31.4643Z" fill="black"/>
<path d="M74.059 33.366C74.059 32.9338 74.059 32.5016 74.1453 32.1559H74.059C73.9727 32.5016 73.8 32.9338 73.6274 33.2796L70.779 39.4169H70.0884V30.7728H70.8653V36.8237C70.8653 37.2559 70.8653 37.6881 70.779 38.0338H70.8653C70.9516 37.6016 71.1242 37.2559 71.2969 36.9101L74.1453 30.7728H74.8358V39.4169H74.059V33.366Z" fill="black"/>
</svg>
